<mxfile host="app.diagrams.net" modified="2023-07-11T10:49:04.010Z" agent="Mozilla/5.0 (Windows NT 10.0; Win64; x64; rv:109.0) Gecko/20100101 Firefox/115.0" etag="KK3-2EPCwDrCPTcaq9xt" version="21.6.1" type="device">
  <diagram name="Page-1" id="x8Cgbk6aoG2NB8uat0VS">
    <mxGraphModel dx="1434" dy="741" grid="1" gridSize="10" guides="1" tooltips="1" connect="1" arrows="1" fold="1" page="1" pageScale="1" pageWidth="850" pageHeight="1100" math="0" shadow="0">
      <root>
        <mxCell id="0" />
        <mxCell id="1" parent="0" />
        <mxCell id="0kZr01sGwNfWkGLTHoOV-15" style="edgeStyle=orthogonalEdgeStyle;rounded=0;orthogonalLoop=1;jettySize=auto;html=1;exitX=1;exitY=0.5;exitDx=0;exitDy=0;entryX=0;entryY=0.5;entryDx=0;entryDy=0;" edge="1" parent="1" source="0kZr01sGwNfWkGLTHoOV-1" target="0kZr01sGwNfWkGLTHoOV-13">
          <mxGeometry relative="1" as="geometry" />
        </mxCell>
        <mxCell id="0kZr01sGwNfWkGLTHoOV-1" value="dry channel(s)" style="rounded=0;whiteSpace=wrap;html=1;fillColor=none;" vertex="1" parent="1">
          <mxGeometry x="270" y="50" width="130" height="30" as="geometry" />
        </mxCell>
        <mxCell id="0kZr01sGwNfWkGLTHoOV-5" value="" style="rounded=0;whiteSpace=wrap;html=1;fillColor=none;" vertex="1" parent="1">
          <mxGeometry x="260" y="20" width="150" height="130" as="geometry" />
        </mxCell>
        <mxCell id="0kZr01sGwNfWkGLTHoOV-17" style="edgeStyle=orthogonalEdgeStyle;rounded=0;orthogonalLoop=1;jettySize=auto;html=1;exitX=1;exitY=0.5;exitDx=0;exitDy=0;entryX=0;entryY=0.5;entryDx=0;entryDy=0;" edge="1" parent="1" source="0kZr01sGwNfWkGLTHoOV-2" target="0kZr01sGwNfWkGLTHoOV-16">
          <mxGeometry relative="1" as="geometry" />
        </mxCell>
        <mxCell id="0kZr01sGwNfWkGLTHoOV-2" value="wet channel(s)" style="rounded=0;whiteSpace=wrap;html=1;fillColor=none;" vertex="1" parent="1">
          <mxGeometry x="270" y="90" width="130" height="30" as="geometry" />
        </mxCell>
        <mxCell id="0kZr01sGwNfWkGLTHoOV-7" value="" style="rounded=0;whiteSpace=wrap;html=1;fillColor=none;" vertex="1" parent="1">
          <mxGeometry x="160" y="10" width="350" height="150" as="geometry" />
        </mxCell>
        <mxCell id="0kZr01sGwNfWkGLTHoOV-6" value="Loop" style="text;html=1;align=center;verticalAlign=middle;resizable=0;points=[];autosize=1;strokeColor=none;fillColor=none;" vertex="1" parent="1">
          <mxGeometry x="260" y="20" width="50" height="30" as="geometry" />
        </mxCell>
        <mxCell id="0kZr01sGwNfWkGLTHoOV-8" value="&lt;div&gt;ShoopDaLoop&lt;/div&gt;" style="text;html=1;align=center;verticalAlign=middle;resizable=0;points=[];autosize=1;strokeColor=none;fillColor=none;" vertex="1" parent="1">
          <mxGeometry x="160" y="10" width="100" height="30" as="geometry" />
        </mxCell>
        <mxCell id="0kZr01sGwNfWkGLTHoOV-11" style="edgeStyle=orthogonalEdgeStyle;rounded=0;orthogonalLoop=1;jettySize=auto;html=1;exitX=1;exitY=0.5;exitDx=0;exitDy=0;entryX=0;entryY=0.5;entryDx=0;entryDy=0;" edge="1" parent="1" source="0kZr01sGwNfWkGLTHoOV-9" target="0kZr01sGwNfWkGLTHoOV-1">
          <mxGeometry relative="1" as="geometry" />
        </mxCell>
        <mxCell id="0kZr01sGwNfWkGLTHoOV-22" style="edgeStyle=orthogonalEdgeStyle;rounded=0;orthogonalLoop=1;jettySize=auto;html=1;entryX=0;entryY=0.5;entryDx=0;entryDy=0;" edge="1" parent="1" target="0kZr01sGwNfWkGLTHoOV-9">
          <mxGeometry relative="1" as="geometry">
            <mxPoint x="10" y="65" as="targetPoint" />
            <mxPoint x="40" y="65" as="sourcePoint" />
          </mxGeometry>
        </mxCell>
        <mxCell id="0kZr01sGwNfWkGLTHoOV-9" value="foo_in" style="rounded=0;whiteSpace=wrap;html=1;fillColor=none;" vertex="1" parent="1">
          <mxGeometry x="160" y="55" width="90" height="20" as="geometry" />
        </mxCell>
        <mxCell id="0kZr01sGwNfWkGLTHoOV-12" style="edgeStyle=orthogonalEdgeStyle;rounded=0;orthogonalLoop=1;jettySize=auto;html=1;exitX=1;exitY=0.5;exitDx=0;exitDy=0;entryX=0;entryY=0.5;entryDx=0;entryDy=0;" edge="1" parent="1" source="0kZr01sGwNfWkGLTHoOV-10" target="0kZr01sGwNfWkGLTHoOV-2">
          <mxGeometry relative="1" as="geometry" />
        </mxCell>
        <mxCell id="0kZr01sGwNfWkGLTHoOV-10" value="&lt;div&gt;foo_return&lt;/div&gt;" style="rounded=0;whiteSpace=wrap;html=1;fillColor=none;" vertex="1" parent="1">
          <mxGeometry x="160" y="95" width="90" height="20" as="geometry" />
        </mxCell>
        <mxCell id="0kZr01sGwNfWkGLTHoOV-20" style="edgeStyle=orthogonalEdgeStyle;rounded=0;orthogonalLoop=1;jettySize=auto;html=1;exitX=1;exitY=0.5;exitDx=0;exitDy=0;entryX=1;entryY=0.5;entryDx=0;entryDy=0;" edge="1" parent="1" source="0kZr01sGwNfWkGLTHoOV-13" target="0kZr01sGwNfWkGLTHoOV-18">
          <mxGeometry relative="1" as="geometry">
            <Array as="points">
              <mxPoint x="550" y="65" />
              <mxPoint x="550" y="230" />
            </Array>
          </mxGeometry>
        </mxCell>
        <mxCell id="0kZr01sGwNfWkGLTHoOV-13" value="foo_send" style="rounded=0;whiteSpace=wrap;html=1;fillColor=none;" vertex="1" parent="1">
          <mxGeometry x="420" y="55" width="90" height="20" as="geometry" />
        </mxCell>
        <mxCell id="0kZr01sGwNfWkGLTHoOV-24" style="edgeStyle=orthogonalEdgeStyle;rounded=0;orthogonalLoop=1;jettySize=auto;html=1;exitX=1;exitY=0.5;exitDx=0;exitDy=0;" edge="1" parent="1" source="0kZr01sGwNfWkGLTHoOV-16">
          <mxGeometry relative="1" as="geometry">
            <mxPoint x="610" y="105" as="targetPoint" />
          </mxGeometry>
        </mxCell>
        <mxCell id="0kZr01sGwNfWkGLTHoOV-16" value="foo_out" style="rounded=0;whiteSpace=wrap;html=1;fillColor=none;" vertex="1" parent="1">
          <mxGeometry x="420" y="95" width="90" height="20" as="geometry" />
        </mxCell>
        <mxCell id="0kZr01sGwNfWkGLTHoOV-21" style="edgeStyle=orthogonalEdgeStyle;rounded=0;orthogonalLoop=1;jettySize=auto;html=1;exitX=0;exitY=0.5;exitDx=0;exitDy=0;entryX=0;entryY=0.5;entryDx=0;entryDy=0;" edge="1" parent="1" source="0kZr01sGwNfWkGLTHoOV-18" target="0kZr01sGwNfWkGLTHoOV-10">
          <mxGeometry relative="1" as="geometry">
            <Array as="points">
              <mxPoint x="110" y="230" />
              <mxPoint x="110" y="105" />
            </Array>
          </mxGeometry>
        </mxCell>
        <mxCell id="0kZr01sGwNfWkGLTHoOV-18" value="External FX/Synth" style="rounded=0;whiteSpace=wrap;html=1;fillColor=none;" vertex="1" parent="1">
          <mxGeometry x="275" y="200" width="120" height="60" as="geometry" />
        </mxCell>
        <mxCell id="0kZr01sGwNfWkGLTHoOV-25" value="in" style="text;html=1;align=center;verticalAlign=middle;resizable=0;points=[];autosize=1;strokeColor=none;fillColor=none;" vertex="1" parent="1">
          <mxGeometry x="10" y="50" width="30" height="30" as="geometry" />
        </mxCell>
        <mxCell id="0kZr01sGwNfWkGLTHoOV-26" value="out" style="text;html=1;align=center;verticalAlign=middle;resizable=0;points=[];autosize=1;strokeColor=none;fillColor=none;" vertex="1" parent="1">
          <mxGeometry x="605" y="90" width="40" height="30" as="geometry" />
        </mxCell>
      </root>
    </mxGraphModel>
  </diagram>
</mxfile>
